<?xml version="1.0" encoding="UTF-8"?>
<svg width="18px" height="12px" viewBox="0 0 18 12" version="1.1" xmlns="http://www.w3.org/2000/svg" xmlns:xlink="http://www.w3.org/1999/xlink">
    <!-- Generator: Sketch 54.1 (76490) - https://sketchapp.com -->
    <title>_ionicons_svg_ios-arrow-round-forward</title>
    <desc>Created with Sketch.</desc>
    <g id="Main" stroke="none" stroke-width="1" fill="none" fill-rule="evenodd">
        <g id="Main-Page" transform="translate(-627.000000, -2707.000000)" fill="#3D3D58" fill-rule="nonzero">
            <g id="Group-8" transform="translate(391.000000, 2521.000000)">
                <g id="Group-Copy-3" transform="translate(61.000000, 172.000000)">
                    <g id="_ionicons_svg_ios-arrow-round-forward" transform="translate(175.000000, 14.000000)">
                        <path d="M11.4789858,0.229762582 C11.160125,0.542239694 11.160125,1.0609517 11.4727336,1.37967835 L15.2740535,5.18564958 L0.806530045,5.18564958 C0.362625912,5.18564958 0,5.54812303 0,5.99809007 C0,6.44805711 0.362625912,6.81053056 0.806530045,6.81053056 L15.2678013,6.81053056 L11.4664814,10.6165018 C11.1538729,10.9352284 11.160125,11.4476909 11.4727336,11.7664176 C11.7915943,12.0788947 12.2980201,12.0788947 12.6168809,11.760168 L17.7686697,6.57304796 C17.8374436,6.49805345 17.8937131,6.4168094 17.9374783,6.31681672 C17.9812435,6.21682405 18,6.11058183 18,6.00433961 C18,5.79185518 17.9187218,5.59186982 17.7686697,5.43563127 L12.6168809,0.248511209 C12.3105245,-0.0764649874 11.7978465,-0.0827145296 11.4789858,0.229762582 L11.4789858,0.229762582 Z" id="Path"></path>
                    </g>
                </g>
            </g>
        </g>
    </g>
</svg>