<svg xmlns="http://www.w3.org/2000/svg" xmlns:xlink="http://www.w3.org/1999/xlink" viewBox="0 0 237 57"><defs><style>.a{isolation:isolate;}.b{fill:#6975f9;}.c{fill:url(#a);}.d{fill:#fff;}.e{fill:url(#b);}.f{fill:url(#c);}.g{fill:url(#d);}.h{fill:url(#e);}.i{fill:url(#f);}</style><linearGradient id="a" x1="-547.422" y1="402.565" x2="-546.422" y2="401.565" gradientTransform="matrix(34.02, 0, 0, -34.02, 18623.28, 13695.26)" gradientUnits="userSpaceOnUse"><stop offset="0" stop-color="#fd8f59"/><stop offset="1" stop-color="#f6387b"/></linearGradient><linearGradient id="b" x1="-547.422" y1="402.565" x2="-546.422" y2="401.565" gradientTransform="matrix(34.02, 0, 0, -34.02, 18664.28, 13695.26)" xlink:href="#a"/><linearGradient id="c" x1="-547.422" y1="402.565" x2="-546.422" y2="401.565" gradientTransform="matrix(34.02, 0, 0, -34.02, 18704.28, 13695.26)" xlink:href="#a"/><linearGradient id="d" x1="-547.422" y1="402.565" x2="-546.422" y2="401.565" gradientTransform="matrix(34.02, 0, 0, -34.02, 18745.28, 13695.26)" xlink:href="#a"/><linearGradient id="e" x1="-547.422" y1="402.565" x2="-546.422" y2="401.565" gradientTransform="matrix(34.02, 0, 0, -34.02, 18785.28, 13695.26)" xlink:href="#a"/><linearGradient id="f" x1="-546.577" y1="401.696" x2="-547.273" y2="402.442" gradientTransform="matrix(34.02, 0, 0, -34.02, 18826.28, 13695.26)" gradientUnits="userSpaceOnUse"><stop offset="0" stop-color="#7365ff"/><stop offset="1" stop-color="#99a7ff"/></linearGradient></defs><title>dataset-lottery</title><g class="a"><g class="a"><path class="b" d="M.69,52.845l.99-1.395a3.483,3.483,0,0,0,2.25.946c1.08,0,1.845-.511,1.845-1.486,0-.96-.735-1.47-1.74-1.47a2.811,2.811,0,0,0-1.6.48l-.975-.63.255-4.814H7.545v1.859H3.615L3.45,48.12A3.237,3.237,0,0,1,4.71,47.9c1.755,0,3.269.929,3.269,2.955,0,2.114-1.769,3.329-3.734,3.329A4.906,4.906,0,0,1,.69,52.845Z"/><path class="b" d="M12.12,50.13,9.705,46.561h2.37l.765,1.2c.224.421.525.855.78,1.275h.06c.2-.42.42-.87.614-1.275l.661-1.2h2.31l-2.431,3.824L17.415,54H15.044l-.855-1.229c-.27-.421-.585-.871-.855-1.291h-.059c-.225.42-.465.855-.69,1.291L11.85,54H9.54Z"/><path class="b" d="M27.825,44.221h2.31l.96,3.465.33,1.349h.06l.33-1.349.96-3.465h2.31V54h-1.86V50.97c0-1.095.2-3.48.285-4.53h-.045l-.75,2.61-.75,2.355h-1.08L30.12,49.05l-.705-2.61H29.37c.105,1.05.285,3.435.285,4.53V54h-1.83Z"/><path class="b" d="M36.87,51.15V46.561h2.205v4.3c0,.99.255,1.44,1.08,1.44a1.691,1.691,0,0,0,1.455-.855V46.561h2.2V54h-1.8l-.165-1.065h-.06a3.221,3.221,0,0,1-2.505,1.245C37.59,54.18,36.87,53.025,36.87,51.15Z"/><path class="b" d="M48.015,51.09V45.226h-2.34V43.485H50.22v7.7A1.1,1.1,0,0,0,51.435,52.4a3,3,0,0,0,1.154-.241l.5,1.62a6.233,6.233,0,0,1-2.234.405C48.99,54.18,48.015,52.98,48.015,51.09Z"/><path class="b" d="M56.52,50.91V48.285H54.645V46.65l1.98-.089.285-2.281h1.815v2.281h3.15v1.724h-3.15V50.9c0,1.125.48,1.559,1.575,1.559a4.523,4.523,0,0,0,1.47-.269l.39,1.589a8.185,8.185,0,0,1-2.43.405C57.36,54.18,56.52,52.86,56.52,50.91Z"/><path class="b" d="M67.065,48.285H64.08V46.561h5.19V54h-2.2ZM66.6,44.056a1.473,1.473,0,0,1,2.94,0,1.477,1.477,0,0,1-2.94,0Z"/><path class="b" d="M72.96,46.561h1.8l.165.75h.045a3.476,3.476,0,0,1,2.219-.931c1.861,0,2.985,1.485,2.985,3.78,0,2.55-1.559,4.02-3.224,4.02a2.594,2.594,0,0,1-1.83-.81h-.06l.105,1.215V56.76H72.96Zm4.95,3.629c0-1.335-.435-2.009-1.365-2.009a1.888,1.888,0,0,0-1.38.689v3.015a2,2,0,0,0,1.274.5C77.265,52.38,77.91,51.72,77.91,50.19Z"/><path class="b" d="M83.955,51.09V45.226h-2.34V43.485H86.16v7.7A1.1,1.1,0,0,0,87.375,52.4a3,3,0,0,0,1.154-.241l.5,1.62a6.233,6.233,0,0,1-2.234.405C84.93,54.18,83.955,52.98,83.955,51.09Z"/><path class="b" d="M94.02,48.285H91.035V46.561h5.189V54h-2.2Zm-.465-4.229a1.472,1.472,0,0,1,2.939,0,1.476,1.476,0,0,1-2.939,0Z"/><path class="b" d="M99.66,50.28a3.79,3.79,0,0,1,3.87-3.9,3.306,3.306,0,0,1,3.51,3.57,6.008,6.008,0,0,1-.105.99h-5.07c.21,1.081,1.005,1.56,2.22,1.56a3.982,3.982,0,0,0,1.92-.525l.735,1.335a5.791,5.791,0,0,1-2.955.87A3.8,3.8,0,0,1,99.66,50.28Zm2.235-.825h3.18a1.38,1.38,0,0,0-1.47-1.394A1.648,1.648,0,0,0,101.9,49.455Z"/><path class="b" d="M109.56,46.561h1.8l.18,1.62h.044a3.46,3.46,0,0,1,3.016-1.8,3.055,3.055,0,0,1,1.44.3l-.451,1.844a4.076,4.076,0,0,0-1.319-.21,2.75,2.75,0,0,0-2.5,1.815V54h-2.2Z"/></g></g><circle class="c" cx="17.01" cy="17.01" r="17.01"/><g class="a"><g class="a"><path class="d" d="M6.759,17.4c0-4.2,1.885-6.356,4.743-6.356S16.245,13.2,16.245,17.4c0,4.18-1.886,6.455-4.743,6.455S6.759,21.579,6.759,17.4Zm6.94,0c0-3.208-.972-4.14-2.2-4.14s-2.2.932-2.2,4.14.972,4.239,2.2,4.239S13.7,20.607,13.7,17.4Zm-3.655-.039A1.458,1.458,0,1,1,11.5,18.838,1.414,1.414,0,0,1,10.044,17.36Z"/><path class="d" d="M18.131,22.1,19.453,20.3a4.664,4.664,0,0,0,3.013,1.244c1.341,0,2.313-.524,2.313-1.458,0-1.089-.836-1.769-3.732-1.769V16.291c2.43,0,3.324-.66,3.324-1.652,0-.856-.7-1.361-1.827-1.361a4.123,4.123,0,0,0-2.625,1.089l-1.438-1.75a6.606,6.606,0,0,1,4.2-1.574c2.682,0,4.549,1.225,4.549,3.382,0,1.283-.875,2.178-2.353,2.741v.078c1.556.408,2.761,1.419,2.761,3.013,0,2.294-2.294,3.6-4.9,3.6A6,6,0,0,1,18.131,22.1Z"/></g></g><circle class="e" cx="58.01" cy="17.01" r="17.01"/><g class="a"><g class="a"><path class="d" d="M47.8,21.987c3.538-2.974,5.91-5.074,5.91-6.842a1.765,1.765,0,0,0-2.021-1.867A3.735,3.735,0,0,0,49.2,14.542l-1.536-1.536a5.658,5.658,0,0,1,4.413-1.963c2.586,0,4.355,1.555,4.355,3.927,0,2.08-2.139,4.3-4.53,6.395.7-.078,1.594-.155,2.236-.155H57.07v2.41H47.8Z"/><path class="d" d="M65.721,13.687h-6.2V11.276h9.272v1.749c-3.129,3.46-3.615,5.774-3.849,10.6H62.066A15.356,15.356,0,0,1,65.721,13.687Z"/></g></g><circle class="f" cx="98.01" cy="17.01" r="17.01"/><g class="a"><g class="a"><path class="d" d="M87.486,22.1,88.808,20.3a4.666,4.666,0,0,0,3.013,1.244c1.342,0,2.314-.524,2.314-1.458,0-1.089-.836-1.769-3.733-1.769V16.291c2.431,0,3.325-.66,3.325-1.652,0-.856-.7-1.361-1.828-1.361a4.118,4.118,0,0,0-2.624,1.089l-1.439-1.75a6.608,6.608,0,0,1,4.2-1.574c2.683,0,4.549,1.225,4.549,3.382,0,1.283-.875,2.178-2.352,2.741v.078c1.555.408,2.76,1.419,2.76,3.013,0,2.294-2.293,3.6-4.9,3.6A6.005,6.005,0,0,1,87.486,22.1Z"/><path class="d" d="M99.4,17.4c0-4.2,1.886-6.356,4.743-6.356S108.89,13.2,108.89,17.4c0,4.18-1.886,6.455-4.744,6.455S99.4,21.579,99.4,17.4Zm6.94,0c0-3.208-.972-4.14-2.2-4.14s-2.2.932-2.2,4.14.972,4.239,2.2,4.239S106.343,20.607,106.343,17.4Zm-3.655-.039a1.458,1.458,0,1,1,1.458,1.478A1.414,1.414,0,0,1,102.688,17.36Z"/></g></g><circle class="g" cx="139.01" cy="17.01" r="17.01"/><g class="a"><g class="a"><path class="d" d="M128.837,17.729c0-4.606,2.6-6.686,5.326-6.686a5.639,5.639,0,0,1,3.927,1.478l-1.5,1.709a3.5,3.5,0,0,0-2.177-.874c-1.517,0-2.819.992-2.936,3.888a4.549,4.549,0,0,1,2.975-1.342,3.5,3.5,0,0,1,3.81,3.811,4.166,4.166,0,0,1-4.432,4.141C131.306,23.854,128.837,22.065,128.837,17.729Zm6.823,1.984a1.621,1.621,0,0,0-1.827-1.789,3.023,3.023,0,0,0-2.275,1.206c.292,1.963,1.244,2.585,2.216,2.585A1.807,1.807,0,0,0,135.66,19.713Z"/><path class="d" d="M140.131,22.1l1.322-1.808a4.666,4.666,0,0,0,3.013,1.244c1.342,0,2.313-.524,2.313-1.458,0-1.089-.836-1.769-3.732-1.769V16.291c2.431,0,3.324-.66,3.324-1.652,0-.856-.7-1.361-1.827-1.361a4.118,4.118,0,0,0-2.624,1.089l-1.439-1.75a6.608,6.608,0,0,1,4.2-1.574c2.682,0,4.549,1.225,4.549,3.382,0,1.283-.875,2.178-2.352,2.741v.078c1.555.408,2.76,1.419,2.76,3.013,0,2.294-2.293,3.6-4.9,3.6A6,6,0,0,1,140.131,22.1Z"/></g></g><circle class="h" cx="179.01" cy="17.01" r="17.01"/><g class="a"><g class="a"><path class="d" d="M168.837,17.729c0-4.606,2.6-6.686,5.326-6.686a5.639,5.639,0,0,1,3.927,1.478l-1.5,1.709a3.5,3.5,0,0,0-2.177-.874c-1.517,0-2.819.992-2.936,3.888a4.549,4.549,0,0,1,2.975-1.342,3.5,3.5,0,0,1,3.81,3.811,4.166,4.166,0,0,1-4.432,4.141C171.306,23.854,168.837,22.065,168.837,17.729Zm6.823,1.984a1.621,1.621,0,0,0-1.827-1.789,3.023,3.023,0,0,0-2.275,1.206c.292,1.963,1.244,2.585,2.216,2.585A1.807,1.807,0,0,0,175.66,19.713Z"/><path class="d" d="M180.209,22.123l1.283-1.808a4.51,4.51,0,0,0,2.916,1.225c1.4,0,2.391-.661,2.391-1.925,0-1.244-.952-1.9-2.255-1.9a3.632,3.632,0,0,0-2.08.623l-1.264-.817.331-6.24h7.562v2.411H184L183.786,16a4.194,4.194,0,0,1,1.633-.292c2.274,0,4.237,1.205,4.237,3.83,0,2.74-2.294,4.316-4.84,4.316A6.354,6.354,0,0,1,180.209,22.123Z"/></g></g><circle class="i" cx="220.01" cy="17.01" r="17.01"/><g class="a"><g class="a"><path class="d" d="M209.759,17.4c0-4.2,1.886-6.356,4.743-6.356s4.743,2.157,4.743,6.356c0,4.18-1.886,6.455-4.743,6.455S209.759,21.579,209.759,17.4Zm6.94,0c0-3.208-.972-4.14-2.2-4.14s-2.2.932-2.2,4.14.971,4.239,2.2,4.239S216.7,20.607,216.7,17.4Zm-3.655-.039a1.458,1.458,0,1,1,1.458,1.478A1.414,1.414,0,0,1,213.044,17.36Z"/><path class="d" d="M221.851,21.307h3.324V14.173h-2.741V12.4a8.7,8.7,0,0,0,3.5-1.127h2.1V21.307h2.8V23.62h-8.981Z"/></g></g></svg>