<svg xmlns="http://www.w3.org/2000/svg" xmlns:xlink="http://www.w3.org/1999/xlink" viewBox="0 0 252 80"><defs><style>.a{fill-opacity:0.25;stroke-linecap:round;fill:url(#a);stroke:url(#b);}.a,.b{stroke-width:2px;}.b,.g{fill:#fff;}.b{stroke:#fa656a;}.c{filter:url(#c);}.d{fill:url(#d);}.e{filter:url(#e);}.f{isolation:isolate;}</style><linearGradient id="a" x1="-553.276" y1="417.875" x2="-553.276" y2="418.875" gradientTransform="matrix(250.023, 0, 0, -56, 138457.743, 23480)" gradientUnits="userSpaceOnUse"><stop offset="0" stop-color="#65baff" stop-opacity="0.311"/><stop offset="1" stop-color="#9957ff"/></linearGradient><linearGradient id="b" x1="-552.776" y1="418.375" x2="-553.776" y2="418.375" gradientTransform="matrix(250.023, 0, 0, -56, 138457.743, 23480)" gradientUnits="userSpaceOnUse"><stop offset="0" stop-color="#7365ff"/><stop offset="1" stop-color="#6679f7"/></linearGradient><filter id="c" x="-33.3" y="-39.4" width="166.7" height="203" name="filter-7"><feOffset result="shadowOffsetOuter1" dy="4" in="SourceAlpha"/><feGaussianBlur result="shadowBlurOuter1" stdDeviation="5" in="shadowOffsetOuter1"/><feColorMatrix values="0 0 0 0 0 0 0 0 0 0 0 0 0 0 0 0 0 0 0.146 0" in="shadowBlurOuter1"/></filter><linearGradient id="d" x1="-545.067" y1="414.389" x2="-544.067" y2="413.971" gradientTransform="matrix(51, 0, 0, -33, 27838, 13688)" gradientUnits="userSpaceOnUse"><stop offset="0" stop-color="#fd8f59"/><stop offset="1" stop-color="#f6387b"/></linearGradient><filter id="e" x="-17.1" y="-29.4" width="134.1" height="182.4" name="filter-9"><feOffset result="shadowOffsetOuter1" dy="2" in="SourceAlpha"/><feGaussianBlur result="shadowBlurOuter1" stdDeviation="2" in="shadowOffsetOuter1"/><feColorMatrix values="0 0 0 0 0 0 0 0 0 0 0 0 0 0 0 0 0 0 0.15 0" in="shadowBlurOuter1"/></filter></defs><title>dataset-price</title><path class="a" d="M1,79c21.539,0,43.156-36.514,57.988-29.845,22.247,10,24.285,15.1,35.251,10.407S117.466,23,137.665,23s18.613,35.841,39.552,30.434c10.7-2.762,16.978-13.833,26.424-10.312,7.012,2.613,14.835,22.936,28.615,29.812C238.248,75.925,244.947,79,251.023,79"/><circle class="b" cx="63.5" cy="50.5" r="4.5"/><g class="c"><path d="M68,33l-4.5,6L59,33H43a5,5,0,0,1-5-5V11a5,5,0,0,1,5-5H84a5,5,0,0,1,5,5V28a5,5,0,0,1-5,5Z"/></g><path class="d" d="M68,33l-4.5,6L59,33H43a5,5,0,0,1-5-5V11a5,5,0,0,1,5-5H84a5,5,0,0,1,5,5V28a5,5,0,0,1-5,5Z"/><g class="e"><g class="f"><g class="f"><path class="g" d="M44.027,21.453H46.25V16.682H44.417V15.5a5.814,5.814,0,0,0,2.34-.754h1.4v6.708h1.872V23H44.027Z"/><path class="g" d="M51.333,21.986l.884-1.209a3.122,3.122,0,0,0,2.015.832c.9,0,1.547-.351,1.547-.975,0-.728-.559-1.183-2.5-1.183V18.1c1.625,0,2.223-.442,2.223-1.105,0-.572-.468-.91-1.222-.91a2.748,2.748,0,0,0-1.755.728l-.962-1.17a4.414,4.414,0,0,1,2.808-1.053c1.794,0,3.042.819,3.042,2.262,0,.858-.584,1.456-1.573,1.833v.052a2.154,2.154,0,0,1,1.846,2.015c0,1.534-1.534,2.4-3.276,2.4A4.012,4.012,0,0,1,51.333,21.986Z"/><path class="g" d="M59.6,21.453h2.223V16.682H59.991V15.5a5.824,5.824,0,0,0,2.341-.754h1.4v6.708h1.872V23H59.6Z"/><path class="g" d="M68.753,21.635a1.508,1.508,0,1,1,1.508,1.521A1.475,1.475,0,0,1,68.753,21.635Z"/><path class="g" d="M78.581,21.023H74.6V19.711l3.445-4.966h2.314v4.823H81.4v1.455h-1.04V23H78.581Zm0-1.455V18.177c0-.52.039-1.287.065-1.807h-.052c-.273.468-.611.936-.9,1.4l-1.248,1.8Z"/></g></g></g><g class="f"><g class="f"><path class="g" d="M44.027,21.453H46.25V16.682H44.417V15.5a5.814,5.814,0,0,0,2.34-.754h1.4v6.708h1.872V23H44.027Z"/><path class="g" d="M51.333,21.986l.884-1.209a3.122,3.122,0,0,0,2.015.832c.9,0,1.547-.351,1.547-.975,0-.728-.559-1.183-2.5-1.183V18.1c1.625,0,2.223-.442,2.223-1.105,0-.572-.468-.91-1.222-.91a2.748,2.748,0,0,0-1.755.728l-.962-1.17a4.414,4.414,0,0,1,2.808-1.053c1.794,0,3.042.819,3.042,2.262,0,.858-.584,1.456-1.573,1.833v.052a2.154,2.154,0,0,1,1.846,2.015c0,1.534-1.534,2.4-3.276,2.4A4.012,4.012,0,0,1,51.333,21.986Z"/><path class="g" d="M59.6,21.453h2.223V16.682H59.991V15.5a5.824,5.824,0,0,0,2.341-.754h1.4v6.708h1.872V23H59.6Z"/><path class="g" d="M68.753,21.635a1.508,1.508,0,1,1,1.508,1.521A1.475,1.475,0,0,1,68.753,21.635Z"/><path class="g" d="M78.581,21.023H74.6V19.711l3.445-4.966h2.314v4.823H81.4v1.455h-1.04V23H78.581Zm0-1.455V18.177c0-.52.039-1.287.065-1.807h-.052c-.273.468-.611.936-.9,1.4l-1.248,1.8Z"/></g></g></svg>