<svg xmlns="http://www.w3.org/2000/svg" xmlns:xlink="http://www.w3.org/1999/xlink" viewBox="0 0 218 74"><defs><style>.a{fill:none;stroke-linecap:square;stroke-width:2px;stroke:url(#a);}.b{fill-opacity:0.25;fill:url(#b);}.c{fill:url(#c);}.d{isolation:isolate;}.e{fill:#fff;}.f{fill:url(#d);}.g{fill:url(#e);}.h{fill:url(#f);}.i{fill:url(#g);}.j{fill:url(#h);}.k{fill:#6975f9;}.l{fill:#7168fe;}</style><linearGradient id="a" x1="-569.347" y1="76" x2="-570.347" y2="76" gradientTransform="matrix(216, 0, 0, -1, 123196, 125)" gradientUnits="userSpaceOnUse"><stop offset="0" stop-color="#7365ff"/><stop offset="1" stop-color="#6679f7"/></linearGradient><linearGradient id="b" x1="-569.872" y1="406.583" x2="-569.872" y2="407.583" gradientTransform="matrix(218, 0, 0, -24, 124341, 9832)" gradientUnits="userSpaceOnUse"><stop offset="0" stop-color="#65baff" stop-opacity="0.311"/><stop offset="1" stop-color="#9957ff"/></linearGradient><linearGradient id="c" x1="-559.876" y1="415.255" x2="-559.137" y2="414.255" gradientTransform="matrix(44.1, 0, 0, -51.3, 24749.999, 21309.8)" gradientUnits="userSpaceOnUse"><stop offset="0" stop-color="#fd8f59"/><stop offset="1" stop-color="#f6387b"/></linearGradient><linearGradient id="d" x1="-466.315" y1="393.536" x2="-466.499" y2="394.536" gradientTransform="matrix(5.4, 0, 0, -12.6, 2584.8, 4971.2)" xlink:href="#a"/><linearGradient id="e" x1="-466.315" y1="393.536" x2="-466.499" y2="394.536" gradientTransform="matrix(5.4, 0, 0, -12.6, 2603.701, 4971.2)" xlink:href="#a"/><linearGradient id="f" x1="-559.876" y1="415.255" x2="-559.137" y2="414.255" gradientTransform="matrix(44.1, 0, 0, -51.3, 24817.999, 21309.8)" xlink:href="#c"/><linearGradient id="g" x1="-466.315" y1="393.536" x2="-466.499" y2="394.536" gradientTransform="matrix(5.4, 0, 0, -12.6, 2652.8, 4971.2)" xlink:href="#a"/><linearGradient id="h" x1="-466.315" y1="393.536" x2="-466.499" y2="394.536" gradientTransform="matrix(5.4, 0, 0, -12.6, 2671.701, 4971.2)" xlink:href="#a"/></defs><title>dataset-sport</title><path class="a" d="M1,49H217"/><path class="b" d="M0,50H218V66a8,8,0,0,1-8,8H8a8,8,0,0,1-8-8Z"/><rect class="c" x="53.7" y="7.2" width="44.1" height="51.3" rx="7.2" ry="7.2"/><g class="d"><g class="d"><path class="e" d="M69.159,39.234l1.714-2.344A6.056,6.056,0,0,0,74.78,38.5c1.74,0,3-.681,3-1.891,0-1.411-1.084-2.294-4.84-2.294V31.7c3.151,0,4.31-.857,4.31-2.142,0-1.11-.907-1.765-2.369-1.765a5.34,5.34,0,0,0-3.4,1.411l-1.865-2.268a8.558,8.558,0,0,1,5.444-2.042c3.479,0,5.9,1.588,5.9,4.386,0,1.663-1.134,2.824-3.05,3.554v.1c2.016.529,3.579,1.839,3.579,3.906,0,2.974-2.974,4.664-6.352,4.664A7.78,7.78,0,0,1,69.159,39.234Z"/></g></g><path class="f" d="M66.3,0h0A2.7,2.7,0,0,1,69,2.7v9.9H63.6V2.7A2.7,2.7,0,0,1,66.3,0Z"/><path class="g" d="M85.2,0h0a2.7,2.7,0,0,1,2.7,2.7v9.9H82.5V2.7A2.7,2.7,0,0,1,85.2,0Z"/><rect class="h" x="121.7" y="7.2" width="44.1" height="51.3" rx="7.2" ry="7.2"/><g class="d"><g class="d"><path class="e" d="M137.512,33.134c0-5.446,2.445-8.243,6.15-8.243s6.15,2.8,6.15,8.243c0,5.42-2.445,8.369-6.15,8.369S137.512,38.554,137.512,33.134Zm9,0c0-4.159-1.261-5.369-2.849-5.369s-2.849,1.21-2.849,5.369,1.261,5.495,2.849,5.495S146.511,37.293,146.511,33.134Zm-4.74-.051A1.891,1.891,0,1,1,143.662,35,1.834,1.834,0,0,1,141.771,33.083Z"/></g></g><path class="i" d="M134.3,0h0A2.7,2.7,0,0,1,137,2.7v9.9h-5.4V2.7A2.7,2.7,0,0,1,134.3,0Z"/><path class="j" d="M153.2,0h0a2.7,2.7,0,0,1,2.7,2.7v9.9h-5.4V2.7A2.7,2.7,0,0,1,153.2,0Z"/><g class="d"><g class="d"><path class="k" d="M16.893,30.221H19.2l.96,3.465.33,1.349h.06l.33-1.349.96-3.465h2.31V40h-1.86V36.97c0-1.095.195-3.48.285-4.53h-.045l-.75,2.61-.75,2.355h-1.08l-.764-2.355-.706-2.61h-.044c.1,1.05.284,3.435.284,4.53V40H16.893Z"/><path class="k" d="M25.967,36.235V30.221h2.205V36.46c0,1.17.435,1.815,1.365,1.815s1.38-.645,1.38-1.815V30.221h2.13v6.014c0,2.536-1.14,3.945-3.51,3.945S25.967,38.771,25.967,36.235Z"/><path class="k" d="M34.982,30.221h2.265L39.3,35.08l.84,2.16h.06c-.1-1.035-.315-2.4-.315-3.554V30.221H42V40H39.737l-2.055-4.875-.84-2.13h-.06c.105,1.08.315,2.385.315,3.54V40H34.982Z"/></g></g><g class="d"><g class="d"><path class="k" d="M178.628,29.221h2.205V37.14h4.35V39h-6.555Z"/><path class="k" d="M187.117,37.14h2.28V31.08h-2.28V29.221h6.78V31.08h-2.28v6.06h2.28V39h-6.78Z"/><path class="k" d="M195.218,29.221h2.34l1.17,4.559c.3,1.065.5,2.055.779,3.135h.06c.3-1.08.51-2.07.795-3.135l1.156-4.559h2.249L200.827,39h-2.655Z"/></g></g><g class="d"><g class="d"><path class="l" d="M107.288,32.649h6.442V34.1h-6.442Z"/></g></g></svg>