<?xml version="1.0" encoding="UTF-8"?>
<svg width="26px" height="21px" viewBox="0 0 26 21" version="1.1" xmlns="http://www.w3.org/2000/svg" xmlns:xlink="http://www.w3.org/1999/xlink">
    <!-- Generator: Sketch 54.1 (76490) - https://sketchapp.com -->
    <title>github-alt-brands</title>
    <desc>Created with Sketch.</desc>
    <g id="Main" stroke="none" stroke-width="1" fill="none" fill-rule="evenodd">
        <g id="Main-Page" transform="translate(-249.000000, -799.000000)" fill="#F7D866" fill-rule="nonzero">
            <g id="github-alt-brands" transform="translate(249.000000, 799.000000)">
                <path d="M10.0804167,14.4753494 C10.0804167,15.618284 9.49,17.4885407 8.0925,17.4885407 C6.695,17.4885407 6.10458333,15.618284 6.10458333,14.4753494 C6.10458333,13.3324147 6.695,11.462158 8.0925,11.462158 C9.49,11.462158 10.0804167,13.3324147 10.0804167,14.4753494 L10.0804167,14.4753494 Z M26,11.713713 C26,13.4581922 25.8266667,15.3065746 25.0520833,16.9088705 C22.9991667,21.0978081 17.355,20.9993735 13.3141667,20.9993735 C9.20833333,20.9993735 3.22833333,21.1470254 1.09416667,16.9088705 C0.303333333,15.3229804 0,13.4581922 0,11.713713 C0,9.42237514 0.752916667,7.25681475 2.24791667,5.50139837 C1.96625,4.63736165 1.83083333,3.72957623 1.83083333,2.83272799 C1.83083333,1.65698182 2.09625,1.06637444 2.62166667,0 C5.07541667,0 6.64625,0.492172817 8.515,1.96869127 C10.0858333,1.59135877 11.7,1.42183258 13.3195833,1.42183258 C14.7820833,1.42183258 16.2554167,1.5804216 17.6745833,1.92494257 C19.51625,0.464829882 21.0870833,0 23.51375,0 C24.0445833,1.06637444 24.3045833,1.65698182 24.3045833,2.83272799 C24.3045833,3.72957623 24.16375,4.62095589 23.8875,5.46858685 C25.3770833,7.24040899 26,9.42237514 26,11.713713 L26,11.713713 Z M22.5170833,14.4753494 C22.5170833,12.0746398 21.0708333,9.95829665 18.5358333,9.95829665 C17.5120833,9.95829665 16.5316667,10.1442286 15.5025,10.2864119 C14.6954167,10.4121894 13.8883333,10.4614066 13.0595833,10.4614066 C12.23625,10.4614066 11.4291667,10.4121894 10.6166667,10.2864119 C9.60375,10.1442286 8.6125,9.95829665 7.58333333,9.95829665 C5.04833333,9.95829665 3.60208333,12.0746398 3.60208333,14.4753494 C3.60208333,19.2767686 7.95708333,20.0150279 11.74875,20.0150279 L14.3595833,20.0150279 C18.1675,20.0150279 22.5170833,19.2822372 22.5170833,14.4753494 Z M18.0429167,11.462158 C16.6454167,11.462158 16.055,13.3324147 16.055,14.4753494 C16.055,15.618284 16.6454167,17.4885407 18.0429167,17.4885407 C19.4404167,17.4885407 20.0308333,15.618284 20.0308333,14.4753494 C20.0308333,13.3324147 19.4404167,11.462158 18.0429167,11.462158 Z" id="Shape"></path>
            </g>
        </g>
    </g>
</svg>