<?xml version="1.0" encoding="UTF-8"?>
<svg width="30px" height="27px" viewBox="0 0 30 27" version="1.1" xmlns="http://www.w3.org/2000/svg" xmlns:xlink="http://www.w3.org/1999/xlink">
    <!-- Generator: Sketch 54.1 (76490) - https://sketchapp.com -->
    <title>landing-community</title>
    <desc>Created with Sketch.</desc>
    <g id="Main" stroke="none" stroke-width="1" fill="none" fill-rule="evenodd">
        <g id="Main-Page" transform="translate(-263.000000, -386.000000)" fill="#4A4A4A" fill-rule="nonzero">
            <g id="landing-community" transform="translate(263.000000, 386.000000)">
                <g id="Group-3">
                    <path d="M15.5,0 C14.1192708,0 13,1.11927083 13,2.5 C13,3.88072917 14.1192708,5 15.5,5 C16.8801563,4.99864583 17.9986458,3.88015625 18,2.5 C18,1.11927083 16.8807292,0 15.5,0 Z M15.5,4.16666667 C14.5795313,4.16666667 13.8333333,3.42046875 13.8333333,2.5 C13.8333333,1.57953125 14.5795313,0.833333333 15.5,0.833333333 C16.4204688,0.833333333 17.1666667,1.57953125 17.1666667,2.5 C17.1666667,3.42046875 16.4204688,4.16666667 15.5,4.16666667 Z" id="Shape"></path>
                    <path d="M17.5,6 L17.382,6 L17.2765,6.045 C16.1576875,6.52248214 14.8423125,6.52248214 13.7235,6.045 L13.618,6 L13.5,6 C12.12,6.00139286 11.001625,6.96 11,8.14285714 L11,10.7142857 C11,11.424375 11.6715625,12 12.5,12 L18.5,12 C19.3284375,12 20,11.424375 20,10.7142857 L20,8.14285714 C19.998375,6.96 18.88,6.00139286 17.5,6 Z M19,10.7142857 C19,10.9509643 18.776125,11.1428571 18.5,11.1428571 L12.5,11.1428571 C12.223875,11.1428571 12,10.9509643 12,10.7142857 L12,8.14285714 C12.000125,7.46828571 12.6084375,6.90846429 13.3935,6.86057143 C14.7294375,7.392 16.270625,7.392 17.6065,6.86057143 C18.3915,6.90846429 18.999875,7.46828571 19,8.14285714 L19,10.7142857 Z" id="Shape"></path>
                    <path d="M25.5,15 C24.1192708,15 23,16.1192708 23,17.5 C23,18.8807292 24.1192708,20 25.5,20 C26.8807292,20 28,18.8807292 28,17.5 C27.9986458,16.1198438 26.8801562,15.0013542 25.5,15 Z M25.5,19.1666667 C24.5795312,19.1666667 23.8333333,18.4204687 23.8333333,17.5 C23.8333333,16.5795312 24.5795312,15.8333333 25.5,15.8333333 C26.4204687,15.8333333 27.1666667,16.5795312 27.1666667,17.5 C27.1666667,18.4204687 26.4204687,19.1666667 25.5,19.1666667 Z" id="Shape"></path>
                    <path d="M27.5,21 L27.382,21 L27.2765,21.0428571 C26.1576875,21.5202857 24.8423125,21.5202857 23.7235,21.0428571 L23.618,21 L23.5,21 C22.12,21.0013929 21.001625,21.96 21,23.1428571 L21,25.7142857 C21,26.424375 21.6715625,27 22.5,27 L28.5,27 C29.3284375,27 30,26.424375 30,25.7142857 L30,23.1428571 C29.998375,21.96 28.88,21.0013929 27.5,21 Z M29,25.7142857 C29,25.9509643 28.776125,26.1428571 28.5,26.1428571 L22.5,26.1428571 C22.223875,26.1428571 22,25.9509643 22,25.7142857 L22,23.1428571 C22.000125,22.4682857 22.6084375,21.9084643 23.3935,21.8605714 C24.7294375,22.392 26.2705625,22.392 27.6065,21.8605714 C28.3915625,21.9084643 28.999875,22.4682857 29,23.1428571 L29,25.7142857 Z" id="Shape"></path>
                    <path d="M4.5,15 C3.11927083,15 2,16.1192708 2,17.5 C2,18.8807292 3.11927083,20 4.5,20 C5.88072917,20 7,18.8807292 7,17.5 C6.99864583,16.1198438 5.88015625,15.0013542 4.5,15 Z M4.5,19.1666667 C3.57953125,19.1666667 2.83333333,18.4204687 2.83333333,17.5 C2.83333333,16.5795312 3.57953125,15.8333333 4.5,15.8333333 C5.42046875,15.8333333 6.16666667,16.5795312 6.16666667,17.5 C6.16666667,18.4204687 5.42046875,19.1666667 4.5,19.1666667 Z" id="Shape"></path>
                    <path d="M6.5,21 L6.382,21 L6.2765,21.0428571 C5.1576875,21.5202857 3.8423125,21.5202857 2.7235,21.0428571 L2.618,21 L2.5,21 C1.12,21.0013929 0.001625,21.96 0,23.1428571 L0,25.7142857 C0,26.424375 0.6715625,27 1.5,27 L7.5,27 C8.3284375,27 9,26.424375 9,25.7142857 L9,23.1428571 C8.998375,21.96 7.88,21.0013929 6.5,21 Z M8,25.7142857 C8,25.9509643 7.776125,26.1428571 7.5,26.1428571 L1.5,26.1428571 C1.223875,26.1428571 1,25.9509643 1,25.7142857 L1,23.1428571 C1.000125,22.4682857 1.6084375,21.9084643 2.3935,21.8605714 C3.7294375,22.392 5.2705625,22.392 6.6065,21.8605714 C7.3915625,21.9084643 7.999875,22.4682857 8,23.1428571 L8,25.7142857 Z" id="Shape"></path>
                    <path d="M19.9643455,23.7646615 C19.8662506,23.5454988 19.6019455,23.4442438 19.3733574,23.536985 C17.3414315,24.3476675 15.0847986,24.4955609 12.9553403,23.9576404 L13.3765184,23.8398397 C13.6151185,23.7733359 13.7519114,23.5353787 13.6820526,23.3082377 C13.6121937,23.0810966 13.3622317,22.9508734 13.1236315,23.0173772 L11.3237249,23.5198504 C11.3169752,23.5198504 11.3120255,23.5271326 11.3057258,23.5292745 C11.2640467,23.5440531 11.2248988,23.5647217 11.1896318,23.5905308 C11.1739951,23.5985626 11.1589772,23.6075583 11.1446342,23.6175178 C11.0971616,23.6578378 11.0595323,23.7075282 11.0343899,23.7631622 C11.0099786,23.8191711 10.9983355,23.8794636 11.0001917,23.9400774 C11.0111598,23.9980674 11.0261778,24.0553078 11.0451893,24.1114237 C11.0478892,24.1174208 11.0451893,24.1242747 11.0501391,24.1302718 L11.9500924,25.7696281 C12.0651739,25.9794739 12.3371286,26.0608099 12.5575609,25.9512553 C12.7779932,25.8417007 12.8634325,25.5828071 12.748351,25.3729613 L12.38207,24.706424 C14.801482,25.3987704 17.3990285,25.2642099 19.7252392,24.326035 C19.9540523,24.2338828 20.0611467,23.9825391 19.9643455,23.7646615 Z" id="Path"></path>
                    <path d="M27.8917536,11.1715785 C27.7478937,11.0199641 27.5146969,11.0199641 27.370837,11.1715785 L26.849552,11.7211383 C26.5445175,8.31940199 24.4958952,5.36741141 21.5129203,4.03118491 C21.3257274,3.94710032 21.1093389,4.03890399 21.0295804,4.23625034 C20.949822,4.43359668 21.0369024,4.66172225 21.2240953,4.74580685 C23.9000554,5.94478904 25.7601954,8.56500474 26.0969123,11.6096728 L25.681358,11.1715785 C25.5350114,11.0225371 25.3018146,11.0268093 25.1604414,11.1810939 C25.022568,11.3315917 25.022568,11.5702036 25.1604414,11.72075 L26.2656392,12.8858944 C26.4093149,13.0377516 26.6426038,13.0380914 26.7866479,12.8865741 C26.7868781,12.8863313 26.7871084,12.8860886 26.7872926,12.8858944 L27.8924904,11.72075 C28.03612,11.5688928 28.0357977,11.3230473 27.8917536,11.1715785 Z" id="Path"></path>
                    <path d="M9.9873125,4.05758722 C9.98589063,4.03422151 9.98211719,4.01105593 9.97593751,3.98834066 C9.97593751,3.98473824 9.97112501,3.98233662 9.96937501,3.97833393 C9.96762501,3.97433124 9.96937501,3.97152936 9.96937501,3.9683272 C9.95745314,3.94886412 9.94367189,3.93035167 9.92825002,3.91309006 C9.91408596,3.88962429 9.89735159,3.86750942 9.87837504,3.84704566 C9.85250786,3.82608156 9.82385162,3.80821955 9.79306256,3.79380986 C9.77769538,3.78185182 9.76128914,3.77099452 9.74406258,3.76138806 L7.99406311,3.03009635 C7.77055537,2.9461399 7.51494607,3.0438556 7.42318047,3.2483431 C7.33639144,3.44172312 7.42689922,3.66367236 7.63093822,3.75778564 L8.53700045,4.13684051 C5.12597805,5.80701352 2.99754119,9.06015089 3.00000213,12.5997309 C3.00000213,12.8207795 3.1958927,13 3.437502,13 C3.6791113,13 3.87500187,12.8207795 3.87500187,12.5997309 C3.87281437,9.4829852 5.67427475,6.59809543 8.61006292,5.01703234 L8.29375052,5.62183901 C8.18946149,5.8208228 8.28084427,6.05948327 8.49806296,6.15539777 C8.55707075,6.1817655 8.62182073,6.19547471 8.6875004,6.19542468 C8.85550035,6.19522455 9.00851593,6.10701523 9.08125028,5.96847208 L9.95625001,4.29814897 C9.95625001,4.29414628 9.95625001,4.28974332 9.95975001,4.28574063 C9.97112501,4.25837223 9.97905469,4.22990309 9.98337501,4.20088357 C9.99086719,4.17931907 9.99644531,4.15725424 10,4.13483917 C9.99852344,4.10877164 9.9943125,4.08290424 9.9873125,4.05758722 Z" id="Path"></path>
                </g>
            </g>
        </g>
    </g>
</svg>