<svg xmlns="http://www.w3.org/2000/svg" xmlns:xlink="http://www.w3.org/1999/xlink" viewBox="0 0 1888.702 187.039"><defs><style>.a,.b{fill:none;}.b{clip-path:url(#a);clip-rule:evenodd;}.c{fill:#fff;}.d{clip-path:url(#b);}.e{fill:url(#c);}</style><clipPath id="a"><rect class="a" x="1484.553" y="35" width="378.897" height="109.825"/></clipPath><clipPath id="b"><path class="b" d="M1515.3,111.877,1485.776,92.2a2.747,2.747,0,0,1,0-4.569l29.521-19.68V56.965A21.965,21.965,0,0,1,1537.262,35h302.019a21.965,21.965,0,0,1,21.965,21.965v65.9a21.965,21.965,0,0,1-21.965,21.965H1537.262A21.965,21.965,0,0,1,1515.3,122.86V111.877Z"/></clipPath><linearGradient id="c" x1="1479.098" y1="23.342" x2="1887.293" y2="163.556" gradientUnits="userSpaceOnUse"><stop offset="0" stop-color="#fd8f59"/><stop offset="0.188" stop-color="#fc865d"/><stop offset="0.502" stop-color="#fa6c67"/><stop offset="0.899" stop-color="#f74377"/><stop offset="0.994" stop-color="#f6387b"/></linearGradient></defs><title>logo</title><path class="c" d="M253.144,60.642h20.805c12.825,0,22.7,3.516,22.7,15.391a13.675,13.675,0,0,1-10.64,13.395v.38c8.835,1.615,13.49,6.27,13.49,14.535,0,12.635-10.355,18.24-23.75,18.24h-22.61Zm20.14,24.891c6.84,0,9.69-2.85,9.69-7.6,0-4.56-3.04-6.365-9.6-6.365h-6.27V85.533Zm1.33,26.125c7.6,0,11.21-2.755,11.21-8.36,0-5.415-3.515-7.7-11.21-7.7h-7.506v16.055Z"/><path class="c" d="M308.813,109.473c0-10.545,8.74-15.865,31.065-17.195-.475-4.275-3.7-6.84-10.069-6.84-4.56,0-9.026,1.71-14.346,4.37l-4.94-9.12a44.513,44.513,0,0,1,22.041-6.365c13.2,0,21.28,6.84,21.28,21.28v26.98h-11.4l-1.045-5.319h-.379c-4.75,3.61-10.641,6.46-16.721,6.46C314.8,123.724,308.813,117.454,308.813,109.473Zm31.065-1.045v-7.79c-13.87.76-17.669,3.7-17.669,7.79,0,3.04,2.564,4.465,6.554,4.465C332.943,112.893,336.554,110.993,339.878,108.428Z"/><path class="c" d="M366.763,75.463h11.4l1.045,6.27h.38c4.085-3.99,9.215-7.41,16.246-7.41,10.64,0,15.39,7.315,15.39,19.19v29.07H397.258V95.318c0-6.27-1.805-9.12-6.935-9.12-3.8,0-6.27,1.71-9.595,4.94v31.445H366.763Z"/><path class="c" d="M421.293,99.023c0-15.39,9.88-24.7,20.14-24.7a15.324,15.324,0,0,1,11.875,5.035h.38l-.665-7.315V55.988h13.965v66.6h-11.4l-1.045-4.845h-.285c-3.515,3.421-8.36,5.986-13.11,5.986C429.178,123.724,421.293,114.413,421.293,99.023Zm31.73,8.93V88.858a11.34,11.34,0,0,0-7.885-3.135c-5.13,0-9.5,4.18-9.5,13.11,0,9.31,3.325,13.49,9.12,13.49C447.893,112.323,450.553,111.089,453.023,107.953Z"/><path class="c" d="M537.762,60.642h21.946c13.395,0,24.225,4.941,24.225,19.951,0,14.535-11.115,20.995-24.225,20.995h-7.98v21H537.762Zm21.091,29.831c7.7,0,11.4-3.42,11.4-9.88s-3.99-8.835-11.4-8.835h-7.125V90.473Z"/><path class="c" d="M598.563,75.463h11.4l1.14,10.26h.284c4.656-7.695,11.591-11.4,19.1-11.4a19.416,19.416,0,0,1,9.121,1.9l-2.851,11.685a25.7,25.7,0,0,0-8.359-1.33c-5.8,0-11.875,3.04-15.866,11.495v24.51H598.563Z"/><path class="c" d="M648.912,99.023c0-15.675,11.59-24.7,24.035-24.7s24.035,9.025,24.035,24.7-11.589,24.7-24.035,24.7S648.912,114.7,648.912,99.023Zm33.725,0c0-8.17-3.23-13.395-9.69-13.395s-9.69,5.225-9.69,13.395,3.23,13.4,9.69,13.4S682.637,107.193,682.637,99.023Z"/><path class="c" d="M717.882,103.013V86.388H706.007V76.033l12.54-.57,1.8-14.441h11.5V75.463H751.8V86.388h-19.95v16.53c0,7.126,3.04,9.88,9.975,9.88a28.506,28.506,0,0,0,9.31-1.709l2.471,10.07a51.884,51.884,0,0,1-15.391,2.565C723.2,123.724,717.882,115.363,717.882,103.013Z"/><path class="c" d="M762.722,99.023c0-15.675,11.591-24.7,24.035-24.7s24.036,9.025,24.036,24.7-11.591,24.7-24.036,24.7S762.722,114.7,762.722,99.023Zm33.725,0c0-8.17-3.23-13.395-9.69-13.395s-9.69,5.225-9.69,13.395,3.23,13.4,9.69,13.4S796.447,107.193,796.447,99.023Z"/><path class="c" d="M821.527,99.023c0-15.675,12.731-24.7,27.266-24.7,7.41,0,13.68,2.66,17.67,6.365L860,89.333a17.558,17.558,0,0,0-10.45-3.7c-8.075,0-13.681,5.225-13.681,13.395s5.415,13.4,13.205,13.4c4.941,0,9.026-2.091,12.445-4.466l5.606,8.835a30.727,30.727,0,0,1-19.381,6.936C832.928,123.724,821.527,114.7,821.527,99.023Z"/><path class="c" d="M876.532,99.023c0-15.675,11.591-24.7,24.035-24.7s24.037,9.025,24.037,24.7-11.591,24.7-24.037,24.7S876.532,114.7,876.532,99.023Zm33.726,0c0-8.17-3.231-13.395-9.691-13.395s-9.689,5.225-9.689,13.395,3.229,13.4,9.689,13.4S910.258,107.193,910.258,99.023Z"/><path class="c" d="M948.543,104.153V67.008h-14.82V55.988h28.785v48.735c0,5.8,3.7,7.7,7.695,7.7a19.015,19.015,0,0,0,7.316-1.521l3.134,10.261c-4.94,1.614-8.264,2.565-14.155,2.565C954.718,123.724,948.543,116.124,948.543,104.153Z"/><path class="c" d="M1058.434,117.434c0-6.935.855-11.97.855-18.335,0-3.706-2.565-7.315-13.775-7.411v-4.94c11.21-.095,13.775-3.7,13.775-7.41,0-5.985-.855-11.78-.855-18.335,0-9.785,5.605-12.635,17.575-12.635h5.8v4.465h-4.941c-9.689,0-11.779,2.47-11.779,8.645,0,5.415.57,11.305.57,17.2,0,6.176-2.09,9.216-8.645,10.355v.381c6.555,1.14,8.645,4.18,8.645,10.355,0,6.46-.57,11.4-.57,17.2,0,6.175,2.09,8.645,11.779,8.645h4.941v4.465h-5.8C1064.039,130.069,1058.434,127.22,1058.434,117.434Z"/><path class="c" d="M1117.984,90.828h-5.92v-4.72l5.92-.48v-22.4h13.361c15.52,0,24.48,8.961,24.48,26,0,16.96-8.96,26.4-24.081,26.4h-13.76Zm12.8,18.321c10.88,0,16.72-6.881,16.72-19.921s-5.84-19.52-16.72-19.52H1125.9v15.92h10.8v5.2h-10.8v18.321Z"/><path class="c" d="M1182.625,63.227h9.279l17.282,52.4h-8.481l-4.48-15.041h-18.241l-4.48,15.041h-8.16ZM1179.9,94.268h14.481l-2.16-7.2c-1.68-5.68-3.44-11.52-4.96-17.44h-.32c-1.52,5.92-3.2,11.76-4.881,17.44Z"/><path class="c" d="M1222.225,76.508h6.48l.639,4.8h.24c3.521-3.36,8.4-5.76,13.041-5.76,10.32,0,16.08,7.84,16.08,19.92,0,13.361-8.4,21.121-17.6,21.121a17.258,17.258,0,0,1-11.121-4.8h-.24l.4,7.04v12.8h-7.92Zm28.32,19.04c0-8.16-3.04-13.36-10.08-13.36-3.2,0-6.8,1.6-10.32,5.28v18.481a14.869,14.869,0,0,0,9.439,4.079C1245.824,110.028,1250.545,104.829,1250.545,95.548Z"/><path class="c" d="M1274.145,76.508h6.48l.639,4.8h.24c3.52-3.36,8.4-5.76,13.041-5.76,10.32,0,16.08,7.84,16.08,19.92,0,13.361-8.4,21.121-17.6,21.121a17.257,17.257,0,0,1-11.12-4.8h-.24l.4,7.04v12.8h-7.919Zm28.32,19.04c0-8.16-3.04-13.36-10.08-13.36-3.2,0-6.8,1.6-10.321,5.28v18.481a14.871,14.871,0,0,0,9.44,4.079C1297.744,110.028,1302.465,104.829,1302.465,95.548Z"/><path class="c" d="M1324.385,110.509l3.519-5.12a27.811,27.811,0,0,0,16.641,5.12c6,0,8.88-2.4,8.88-5.361,0-2.8-1.6-4.48-11.441-6.56-10.32-2.159-15.2-5.68-15.2-11.6,0-6.56,5.84-11.44,16.72-11.44a29.928,29.928,0,0,1,16,5.12l-3.681,4.96a23.671,23.671,0,0,0-13.039-4c-5.921,0-8.081,2.24-8.081,4.96,0,3.04,3.12,4.32,10.72,5.92,12.8,2.8,16,6.08,16,12.16,0,6.561-6.4,11.921-17.921,11.921A34.588,34.588,0,0,1,1324.385,110.509Z"/><path class="c" d="M1388.221,125.6h4.845c9.69,0,11.875-2.47,11.875-8.645,0-5.8-.57-10.735-.57-17.2,0-6.175,1.995-9.215,8.551-10.355v-.381c-6.556-1.139-8.551-4.179-8.551-10.355,0-5.89.57-11.78.57-17.195,0-6.175-2.185-8.645-11.875-8.645h-4.845V48.368h5.8c11.875,0,17.48,2.85,17.48,12.635,0,6.555-.855,12.35-.855,18.335,0,3.705,2.566,7.315,13.775,7.41v4.94c-11.209.1-13.775,3.7-13.775,7.411,0,6.365.855,11.4.855,18.335,0,9.786-5.605,12.635-17.48,12.635h-5.8Z"/><path class="c" d="M93.519,0a93.52,93.52,0,1,0,93.52,93.519A93.519,93.519,0,0,0,93.519,0Zm38.464,132.581L92.9,155.18v.007l-.007,0-.006,0v-.007l-39.1-22.6v-78.2l.04.022L92.874,31.852l25.054,13.987.012-.007V81.138l-12.194-7V52.864l0,0L92.885,45.535,65.974,61.1v64.822l26.914,15.567L119.8,125.975l.129-26.64L81.687,77.146l12.287-6.463,38.1,22.22Zm-31.725-41.6,9.418,5.411L81.688,112.327V80.2L91.519,86v9.643Z"/><g class="d"><rect class="e" x="1457.097" y="7.544" width="431.605" height="164.738"/></g><path class="c" d="M1570.7,106.386h8.566v-31.3h11.093V67.508h-30.751v7.578H1570.7v31.3Zm27.071,0h27.4V98.479h-18.835V90.572H1623.2V82.664h-16.858V75.416h17.846V67.508h-26.413v38.878Zm62.106-35.8a14.731,14.731,0,0,0-5.546-3.13,21.826,21.826,0,0,0-6.37-.933,19.464,19.464,0,0,0-5.546.8,14.3,14.3,0,0,0-4.75,2.389,11.928,11.928,0,0,0-3.3,3.953,11.68,11.68,0,0,0-1.236,5.492,9.1,9.1,0,0,0,1.346,5.216,10.556,10.556,0,0,0,3.377,3.185,19.631,19.631,0,0,0,4.393,1.922q2.36.714,4.393,1.428a12.432,12.432,0,0,1,3.377,1.73,3.289,3.289,0,0,1,1.345,2.773,3.152,3.152,0,0,1-.521,1.812,4.162,4.162,0,0,1-1.373,1.263,6.914,6.914,0,0,1-1.922.741,9.368,9.368,0,0,1-2.114.247,9.478,9.478,0,0,1-4.146-.961,8.875,8.875,0,0,1-3.322-2.718l-6.1,6.7a17.6,17.6,0,0,0,6.041,3.734,21.907,21.907,0,0,0,12.767.384,13.888,13.888,0,0,0,4.777-2.361,11.486,11.486,0,0,0,3.268-4.009,12.511,12.511,0,0,0,1.208-5.656,9.881,9.881,0,0,0-1.318-5.436,10.232,10.232,0,0,0-3.322-3.24,17.79,17.79,0,0,0-4.311-1.867q-2.307-.659-4.311-1.318a12.474,12.474,0,0,1-3.322-1.592,3.1,3.1,0,0,1-1.318-2.691,3.13,3.13,0,0,1,.549-1.867,4.082,4.082,0,0,1,1.428-1.236,7.42,7.42,0,0,1,1.867-.686,8.873,8.873,0,0,1,1.922-.22,10.14,10.14,0,0,1,3.377.632,6.111,6.111,0,0,1,2.828,1.949l5.876-6.425Zm16.693,35.8h8.566v-31.3h11.092V67.508h-30.751v7.578h11.093v31.3Zm26.741,0h8.567V78.71h.11l16.968,27.676h11.2V67.508H1731.6V94.525h-.109l-16.529-27.017h-11.642v38.878Zm47.829,0h27.4V98.479H1759.71V90.572h16.858V82.664H1759.71V75.416h17.847V67.508h-26.413v38.878Zm44.533,0h8.566v-31.3h11.093V67.508h-30.751v7.578h11.092v31.3Z"/></svg>